<svg width="600" height="400" viewBox="0 0 600 400" fill="none" xmlns="http://www.w3.org/2000/svg">
  <!-- Background -->
  <rect width="600" height="400" rx="16" fill="#f8f9fa"/>
  
  <!-- Main container -->
  <rect x="50" y="50" width="500" height="300" rx="12" fill="white" stroke="#e9ecef" stroke-width="2"/>
  
  <!-- Header bar -->
  <rect x="50" y="50" width="500" height="60" rx="12" fill="#1a1a1a"/>
  <circle cx="80" cy="80" r="6" fill="#ff5f56"/>
  <circle cx="100" cy="80" r="6" fill="#ffbd2e"/>
  <circle cx="120" cy="80" r="6" fill="#27ca3f"/>
  
  <!-- Sidebar -->
  <rect x="70" y="130" width="120" height="200" rx="8" fill="#f8f9fa"/>
  <rect x="80" y="145" width="100" height="12" rx="6" fill="#dee2e6"/>
  <rect x="80" y="165" width="80" height="8" rx="4" fill="#dee2e6"/>
  <rect x="80" y="180" width="90" height="8" rx="4" fill="#dee2e6"/>
  <rect x="80" y="195" width="70" height="8" rx="4" fill="#dee2e6"/>
  
  <!-- Main content -->
  <rect x="210" y="130" width="320" height="30" rx="4" fill="#1a1a1a"/>
  <rect x="210" y="175" width="280" height="12" rx="6" fill="#dee2e6"/>
  <rect x="210" y="195" width="320" height="12" rx="6" fill="#dee2e6"/>
  <rect x="210" y="215" width="250" height="12" rx="6" fill="#dee2e6"/>
  
  <!-- Cards -->
  <rect x="210" y="250" width="100" height="60" rx="8" fill="white" stroke="#e9ecef"/>
  <rect x="320" y="250" width="100" height="60" rx="8" fill="white" stroke="#e9ecef"/>
  <rect x="430" y="250" width="100" height="60" rx="8" fill="white" stroke="#e9ecef"/>
  
  <!-- Decorative elements -->
  <circle cx="450" cy="150" r="20" fill="#e3f2fd" opacity="0.5"/>
  <circle cx="480" cy="180" r="15" fill="#f3e5f5" opacity="0.5"/>
  <circle cx="500" cy="200" r="12" fill="#e8f5e8" opacity="0.5"/>
</svg>